<svg xmlns="http://www.w3.org/2000/svg" width="1045.98" height="506.19" viewBox="0 0 784.49 379.64"><defs><style>.cls-1{fill:#717070}.cls-1,.cls-2{stroke:#040404}.cls-1,.cls-2,.cls-26,.cls-29,.cls-3,.cls-30,.cls-5,.cls-8{stroke-miterlimit:10}.cls-1,.cls-2,.cls-3,.cls-5,.cls-8{stroke-width:3.89px}.cls-2,.cls-30{fill:none}.cls-3{fill:#51504f}.cls-12,.cls-26,.cls-3,.cls-30,.cls-5,.cls-8{stroke:#010101}.cls-5{fill:#959494}.cls-12{fill:#676868}.cls-8{fill:#b3b3b3}.cls-12{stroke-linejoin:round;stroke-width:5.59px}.cls-11{fill:#010101}.cls-26{fill:#b0b1b1;stroke-width:1.3px}.cls-29{stroke-width:4.64px;fill:#991c1f;stroke:#2c1213}.cls-30{stroke-width:2.59px}</style></defs><g id="Layer_2" data-name="Layer 2"><g id="Layer_1-2" data-name="Layer 1"><path class="cls-1" d="M253.31 61.07c-4.67 0-8.56-6-8.56-13.48s3.89-13.48 8.56-13.48zm0-7.77h54.7l14.26-5.71-14.26-5.7h-54.7V53.3z"/><path class="cls-2" d="M264.19 41.89l5.19 11.4m4.15-11.4l5.44 11.4m3.89-11.4l5.45 11.4m3.89-11.4l5.44 11.4m3.89-11.4l5.44 11.4m4.41-10.11l3.11 7.52"/><path class="cls-1" d="M681.61 364.42c7.26.51 14-8.56 14.52-20.23s-4.92-21.26-12.18-21.52z"/><path class="cls-1" d="M682.39 352.49l-85.56-4.67-21.77-10.11 22.81-7.78 85.3 4.67-.78 17.89z"/><path class="cls-2" d="M666.32 333.56l-9.34 17.63m2.08-17.89l-9.34 17.63m2.08-18.15l-9.33 17.63m2.07-17.88l-9.59 17.37m2.33-17.89l-9.59 17.63m2.33-17.89l-9.59 17.37m2.33-17.89l-9.59 17.63m2.07-18.15l-9.33 17.63m2.07-17.89l-9.33 17.63m2.07-18.15l-8.03 16.08m-.26-14.26l-5.71 11.41"/><path class="cls-3" d="M592.69 300.38l-263.68-11.41-6.74 9.85 18.41 8.82 252.01-7.26z"/><path d="M540.83 301.67c-5.7.26-10.37-2.33-10.37-5.7l-.26-8.56c0-3.37 4.41-6.22 10.11-6.48l225.05-7.26c5.7-.26 10.37 2.34 10.37 5.71l.26 8.55c0 3.37-4.41 6.22-10.11 6.48z" stroke-width="5.06" fill="#959494" stroke="#010101" stroke-miterlimit="10"/><path class="cls-5" d="M329 287.67c60.41 32.41 72.6 17.37 72.6 17.37-60.66-32.41-72.6-17.37-72.6-17.37z"/><path class="cls-3" d="M358.57 287.41c60.41 32.41 72.59 17.37 72.59 17.37-60.67-32.15-72.59-17.37-72.59-17.37z"/><path class="cls-5" d="M394.35 286.64C454.76 319 466.94 304 466.94 304c-60.67-32.14-72.59-17.36-72.59-17.36z"/><path class="cls-3" d="M423.9 286.64C484.31 319 496.5 304 496.5 304c-60.67-32.4-72.6-17.36-72.6-17.36z"/><path class="cls-5" d="M454.5 283.78c60.41 32.41 72.59 17.37 72.59 17.37-60.67-32.15-72.59-17.37-72.59-17.37z"/><path class="cls-3" d="M484.05 283.78c60.41 32.41 72.6 17.37 72.6 17.37-60.65-32.4-72.6-17.37-72.6-17.37z"/><path class="cls-5" d="M518.28 281.71c60.41 32.41 72.59 17.37 72.59 17.37-60.67-32.41-72.59-17.37-72.59-17.37z"/><path class="cls-3" d="M547.57 281.45c60.41 32.41 72.6 17.37 72.6 17.37-60.41-32.15-72.6-17.37-72.6-17.37z"/><path d="M134.3 265.38l-8.81 23.33 15.81 19.19 24.63-4.15 8.82-23.34-15.82-19.18zm26.19 23.33a11.08 11.08 0 1 1-6.49-14.26 11.14 11.14 0 0 1 6.49 14.26zm-11.93 54.45l-4.92 16.07L155 371.67l16.6-3.62 4.96-16.05-11.41-12.44zm18.67 14.51a7.46 7.46 0 1 1-4.93-9.33 7.49 7.49 0 0 1 4.93 9.33zm253.56-18.14l-16.85-.26-8.82 14.52 8.3 14.77 16.85.26 8.82-14.52zm-9.07 22a7.65 7.65 0 1 1 .26-15.29 7.37 7.37 0 0 1 7.26 7.77 7.08 7.08 0 0 1-7.52 7.55zM661.13 54.85l-16.85-.26-8.81 14.52 8.29 14.78 16.85.26 8.82-14.52zm-8.81 22a7.65 7.65 0 0 1 .26-15.3 7.37 7.37 0 0 1 7.26 7.78 7.52 7.52 0 0 1-7.52 7.56z" fill="#676868" stroke="#010101" stroke-width="3.89" stroke-miterlimit="10"/><path d="M178.9 133.41L173.19 149l10.37 12.71 16.34-2.59 5.7-15.56-10.37-12.7zm17.37 15.3a7.3 7.3 0 1 1-4.41-9.34 7.23 7.23 0 0 1 4.41 9.34zM112.78 7.66l-5.7 15.56 10.37 12.7 16.33-2.59 5.71-15.55-10.37-12.71zM130.15 23a7.3 7.3 0 1 1-4.4-9.33 7.2 7.2 0 0 1 4.4 9.33z" stroke-width="2.56" fill="#676868" stroke="#010101" stroke-miterlimit="10"/><path class="cls-8" d="M187.19 82.85l-20.48 23.34-2.85 8.29 7.78-3.89 20.48-23.33-4.93-4.41z"/><path class="cls-8" d="M198.6 90.11a2.83 2.83 0 0 1-3.89.26L184.08 81a2.62 2.62 0 0 1-.26-3.89 2.61 2.61 0 0 1 3.89-.26l10.63 9.33a2.59 2.59 0 0 1 .26 3.89zM30.86 11.81l-5.45 30.6 2.07 8.55 4.41-7.52 5.45-30.59-6.48-1.04z"/><path class="cls-8" d="M44.34 12.07A2.93 2.93 0 0 1 41 14.4l-14-2.59a2.93 2.93 0 0 1-2.34-3.37A2.93 2.93 0 0 1 28 6.11L42 8.7a2.75 2.75 0 0 1 2.34 3.37zm497.27 58.34l-29.56-9.86-8.55.52 6.48 5.71 29.56 9.85 2.07-6.22z"/><path class="cls-8" d="M539.28 83.89a2.8 2.8 0 0 1-1.82-3.63l4.67-13.48a2.8 2.8 0 0 1 3.63-1.78 2.81 2.81 0 0 1 1.81 3.63l-4.66 13.48a2.9 2.9 0 0 1-3.63 1.82zm37.07-7.78l31.11-2.07 7.78-3.89-8.29-2.85-30.86 2.33.26 6.48z"/><path class="cls-8" d="M573.5 62.89a3.07 3.07 0 0 1 3.11 2.59l.78 14.26a3.08 3.08 0 0 1-2.59 3.11 3.07 3.07 0 0 1-3.11-2.59L570.91 66a2.61 2.61 0 0 1 2.59-3.11zm158.67 79.33l31.11-2.07 7.78-3.89-8.3-2.59-30.85 2.07.26 6.48z"/><path class="cls-8" d="M729.32 129a3.08 3.08 0 0 1 3.11 2.59l.78 14.26a3.07 3.07 0 0 1-2.59 3.11 3.08 3.08 0 0 1-3.12-2.59l-.77-14.26c0-1.55 1-3.11 2.59-3.11zm-500.38 32.67l31.11-2.08 7.77-3.88-8.29-2.86-30.85 2.34.26 6.48z"/><path class="cls-8" d="M226.08 148.45a3.07 3.07 0 0 1 3.11 2.59l.81 14.26a3.09 3.09 0 0 1-2.59 3.11 3.08 3.08 0 0 1-3.11-2.59l-.78-14.26a2.61 2.61 0 0 1 2.59-3.11zM312.68 10l-31.11 1.81-8.04 3.63 8.29 2.85 31.12-1.81-.26-6.48z"/><path class="cls-8" d="M315.27 23.22a2.66 2.66 0 0 1-2.85-2.59l-.78-14.26a2.66 2.66 0 0 1 2.59-2.85 2.66 2.66 0 0 1 2.86 2.59l.77 14.26c.26 1.29-1 2.59-2.59 2.85zM461.5 358.45l30.59-5.96 7.26-4.67-8.56-1.55-30.59 5.7 1.3 6.48z"/><path class="cls-8" d="M457.09 345.75a2.93 2.93 0 0 1 3.37 2.33l2.59 14a2.93 2.93 0 0 1-2.33 3.37 2.93 2.93 0 0 1-3.37-2.33l-2.59-14a2.92 2.92 0 0 1 2.33-3.37zm78.56 8.3l29.81 8.29 8.56-1.04-6.74-5.18-30.08-8.56-1.55 6.49z"/><path class="cls-8" d="M537.2 340.56a2.8 2.8 0 0 1 1.82 3.63l-3.89 13.74a2.63 2.63 0 0 1-3.37 1.82 2.64 2.64 0 0 1-1.82-3.37l3.89-13.74a2.59 2.59 0 0 1 3.37-2.08zm-303.08 9.34l-30.85 3.89-7.52 4.14 8.29 2.34 30.86-3.89-.78-6.48z"/><path class="cls-8" d="M238 362.86a2.87 2.87 0 0 1-3.11-2.59L233.34 346a2.87 2.87 0 0 1 2.59-3.11 2.87 2.87 0 0 1 3.12 2.59l1.55 14.26c0 1.55-1 3.11-2.59 3.11z"/><path d="M761.21 158c15.3 0 20.74 42 20.48 57.3v3.37a28 28 0 0 1-28 27.74l-665-4.15a28 28 0 0 1-27.74-28v-3.37a28 28 0 0 1 28-27.74z" stroke-width="5.59" stroke-linejoin="round" fill="#b17f4b" stroke="#010101"/><path d="M772.88 210.93l-221.42 8.3m-22.03-1.82l-194.2-2.33m-25.14-3.89l-180.45 6.22m-14.01-16.85l239.31-2.33m23.85-.78l201.71 7.78m20.74-2.34l72.08-5.96m13.74 1.81l74.41-2.85m-1.82-23.33l-230.74 10.37m-28-3.37l-61.71 2.07m-27.48.26l-145.19 7m-147.78 37.6l63 4.14m16.59 2.08l71.56-4.93m26.18 3.89l81.16 1.56m22.81-3.63l64.3-3.37m33.19 7l75.7-.52m22.82-1.56l156.08-.26" stroke="#442a18" stroke-linecap="round" stroke-linejoin="round" stroke-width="5.59" fill="none"/><path class="cls-11" d="M62.74 117.85c33.71.52 60.15 69.49 59.64 100.6s-28.26 55.74-62 55.22S-.26 247.75 0 216.63c.52-30.85 29-99.3 62.74-98.78z"/><path class="cls-11" d="M59.89 234c25.41.26 45.63 25.93 45.11 56.78-.51 31.12-21.51 55.75-46.66 55.49-25.41-.26-45.63-25.93-45.12-56.78.52-31.11 21.26-56 46.67-55.49z"/><path class="cls-12" d="M62 163.74c25.4.26 45.63 19.45 45.11 42.78-.26 23.34-21.26 41.74-46.41 41.48-25.41-.25-45.63-19.44-45.11-42.77.23-23.34 21.23-41.75 46.41-41.49z"/><path class="cls-12" transform="rotate(-89.15 57.62 333.18)" d="M14.69 280.8h85.82v104.74H14.69z"/><path class="cls-12" d="M20.48 135C21.48 72.26 70 22 81.93 22.22s21 51.34 20 114.08z"/><g stroke="#010101" stroke-width="3.89" stroke-miterlimit="10"><path fill="#878787" d="M229.19 308.15l-18.15 4.93-22.81-7.26-.78-7 20.74-12.19 18.41.78"/><path d="M269.64 278.08l24.89-2.85 3.37 29.55-24.63 2.86-9.33-4.15-8.3 6h-.26L231 312.3c-2.33-13.22-20.74-11.15-20.74-11.15H210l-21.78 2.34-.26-2.85 21.78-2.34s18.67-2.33 17.89-15.55l24.11-2.6h.26l9.33 4.15 8.3-6z" fill="#585856"/><path fill="#3d3d3c" d="M271.3 288.8l24.49-2.74 1.03 9.27-24.47 2.74z"/><path fill="none" d="M273.01 307.64l-3.37-29.56"/></g><path d="M721.54 341.86a28.91 28.91 0 1 0 28.52-29.3 29.11 29.11 0 0 0-28.52 29.3zm45.63-.52A16.46 16.46 0 1 1 750.58 325c8.81-.25 16.33 7.27 16.59 16.34zM157.64 29.7a28.93 28.93 0 1 0 57.81 2.3 28.63 28.63 0 0 0-27.74-30 29.29 29.29 0 0 0-30.07 27.7zM203 31.78a16.48 16.48 0 0 1-32.93-1.3 16.68 16.68 0 0 1 17.11-15.82A16.17 16.17 0 0 1 203 31.78z" fill="#9c9c9b" stroke="#010101" stroke-width="3.89" stroke-miterlimit="10"/><path stroke-width="4.65" fill="#cb9866" stroke-linecap="round" stroke-linejoin="round" stroke="#010101" d="M394.09 42.92l-57.56-15.29 58.6-18.41 16.33-.26 1.81 33.45-19.18.51z"/><path d="M754 11.55a16.56 16.56 0 0 0-16.33 16.08A16.38 16.38 0 0 0 753.69 44h10.63a16.54 16.54 0 0 0 16.33-16.07 16.55 16.55 0 0 0-16.07-16.34z" fill="#b05264" stroke-linejoin="round" stroke="#010101" stroke-width="3.89"/><path fill="#5d5d5c" stroke-linejoin="round" stroke="#010101" stroke-width="3.89" d="M742.8 11.03h10.11l4.93 11.15v11.15l-5.96 11.15h-9.86"/><path d="M744.62 21.92v11.15l-344.57-1.81c11.67-4.67 0-11.15 0-11.15z" fill="#f4991f" stroke-linejoin="round" stroke="#010101" stroke-width="3.89"/><path d="M744.62 33.33l-2.34 11.15-342.23-2.07s10.63-5.45 0-11.15z" fill="#e65125" stroke-linejoin="round" stroke="#010101" stroke-width="3.89"/><path d="M400.05 9l343 2.07 1.82 11.15-344.82-2.11s13.22-4.93 0-11.11z" fill="#ffcb38" stroke-linejoin="round" stroke="#010101" stroke-width="3.89"/><path stroke-width="4.65" fill="#010101" stroke-linecap="round" stroke-linejoin="round" stroke="#010101" d="M350.53 23.22l4.67 4.67-2.59 3.89-16.08-4.15 14-4.41z"/><path d="M331.6 365.71c-.77-.26-1.55-1-1.29-1.81l3.89-23.6c.26-.77 1-1.55 1.81-1.29l1.3.26c.78.26 1.55 1 1.29 1.81l-3.88 23.59c-.26.78-1 1.56-1.82 1.3zm3.4-2.07l3.63-21.52 21 3.37c.51 0 1 .26 1.55.26a11.5 11.5 0 0 1 8.56 12.44c-.78 5.45-6 9.34-11.93 9.08a3.3 3.3 0 0 1-1.56-.26z" stroke-width="1.6" fill="#c7c6c5" stroke="#010101" stroke-miterlimit="10"/><path class="cls-26" d="M337.57 347.3l17.89 3.12-.52 2.59-3.37 2.33.52-3.89-14.78-2.07.26-2.08zm17.11 8.56l-3.11 1.3-1.3-.26-1.04-1.82-7.51-1.29-5.19 1.03-.52 3.37 17.63 3.11 1.04-5.44z"/><path class="cls-26" transform="rotate(-80.73 308.2 352.04)" d="M307.3 328.19h1.81v47.7h-1.81z"/><path class="cls-26" transform="rotate(-80.68 300.76 342.34)" d="M299.83 309.54h1.81v65.59h-1.81z"/><path d="M148.82 93.22c.26.78-.52 1.56-1.3 1.82l-23.59 4.4c-.78.26-1.55-.51-1.81-1.29l-.26-1.3c-.26-.78.52-1.55 1.29-1.81l23.6-4.41c.77-.26 1.55.52 1.81 1.3zm-3.11-2.59l-21.52 4.15L120.3 74c0-.52-.26-1-.26-1.56-.26-6 3.37-11.15 8.82-12.18s10.89 2.59 12.7 8c.26.52.26 1 .52 1.56z" fill="#e4253d" stroke-width="1.6" stroke="#010101" stroke-miterlimit="10"/><path class="cls-26" d="M129.63 93.74l-3.36-17.63 2.85-.52 3.37 2.33-3.89.78 2.85 14.78-1.82.26z"/><path class="cls-26" d="M131.71 75.07l2.33 2.34.26 1.29-1.55 1.82 1.55 7.26 2.6 4.66 3.63-.77-3.38-17.63-5.44 1.03z"/><path class="cls-26" transform="rotate(-10.79 144.02 119.85)" d="M143.1 96.02h1.81v47.7h-1.81z"/><path class="cls-26" transform="rotate(-10.8 137.58 130.47)" d="M136.65 97.65h1.81v65.6h-1.81z"/><path d="M674.36 94.78l20.74-.26 43.29-4.41L762 95.3l.26 15.81-23.34 5.45-43.29-3.63-21.52.26h-.26L506.61 115v-1.3l-.26-15.55a2 2 0 0 0-.26-1.3z" stroke-width="4.64" stroke="#333" fill="#9c9c9b" stroke-miterlimit="10"/><path class="cls-29" d="M506.09 96.33l162.3-1.81a43.92 43.92 0 0 1 6 .26c6.74.52 11.66 2.33 11.66 4.41l.26 9.33c0 2.07-5.18 3.89-12.44 4.67h-.26a34.33 34.33 0 0 1-5.19.25l-162 1.82v-1.56l-.26-15.55a2 2 0 0 0-.26-1.3.81.81 0 0 0 .19-.52zM223 85.18c-6.22 0-11.41 5.45-11.15 12.19l.52 24.11c.26 6.74 5.45 11.93 11.67 11.93 0 0 52.11 10.37 58.33 10.37L448.79 142l-.26-15.55-.77-39.67-.26-15.56L281.05 73C274.57 73 223 85.18 223 85.18zm30.34 22.3a13.24 13.24 0 0 1-11.67 14.78c-7.26.78-13.48-4.93-14.26-12.44A13.23 13.23 0 0 1 239.05 95c7.26-.74 13.48 5 14.26 12.48z"/><path class="cls-29" d="M471.35 86.48l23.07-.26a11.69 11.69 0 0 1 11.41 10.11v.26a2 2 0 0 0 .26 1.3l.26 15.55V115a11.71 11.71 0 0 1-11.15 10.63l-23.07.26-.26-10.63-.26-18.41z"/><path class="cls-29" d="M450.87 56.92l15.81-.25c2.34 0 4.15 2.59 4.15 5.7l.52 23.85.26 10.63.26 18.41.26 10.63.52 25.67c0 3.11-1.82 5.7-3.89 5.7l-15.82.26c-2.33 0-4.15-2.59-4.15-5.7l-.26-10.11-.26-15.56-.77-39.67-.26-15.55-.26-8.3c.02-3.11 1.81-5.71 3.89-5.71z"/><path class="cls-30" d="M712.21 138.59l-223.49 5.71"/><path d="M586 149.74a7.31 7.31 0 0 1-7.52-7.26v-.78a7.3 7.3 0 0 1 7.26-7.51l41.74-1a7.31 7.31 0 0 1 7.52 7.26v.78a7.31 7.31 0 0 1-7.26 7.52z" fill="#cb9866"/><path class="cls-30" d="M603.06 133.67l.52 15.55"/><path stroke-width="5.19" stroke="#010101" fill="none" stroke-miterlimit="10" d="M611.87 133.41l.52 15.55"/><path stroke="#f8b232" stroke-width="5.19" fill="none" stroke-miterlimit="10" d="M622.5 133.15l.52 15.56"/><path stroke="#ec6923" stroke-width="5.19" fill="none" stroke-miterlimit="10" d="M593.46 133.93l.52 15.55"/><path class="cls-30" d="M586 149.74a7.31 7.31 0 0 1-7.52-7.26v-.78a7.3 7.3 0 0 1 7.26-7.51l41.74-1a7.31 7.31 0 0 1 7.52 7.26v.78a7.31 7.31 0 0 1-7.26 7.52z"/><path class="cls-1" d="M763.8 54.59c4.67-.26 8.82 5.45 9.34 13 .51 7.26-3.12 13.49-7.78 13.75z"/><path class="cls-1" d="M764.32 62.37l-54.7 3.11-13.75 6.48 14.52 4.93 54.71-3.11-.78-11.41z"/><path class="cls-2" d="M754.21 74.55l-6.22-11.4m-3.11 11.92l-6.23-11.4m-3.11 11.92l-6.22-11.41m-3.11 11.93l-5.96-11.41m-3.37 11.93l-5.97-11.41m-4.15 10.63l-3.63-7.52"/></g></g></svg>