<svg xmlns="http://www.w3.org/2000/svg" viewBox="0 0 21.42 21.42"><g data-name="Layer 2"><g data-name="Layer 1"><path d="M12.3 4.67H9.14a5 5 0 0 0-5 5 5 5 0 0 0 5 5h3.16a5 5 0 0 0 5-5 5 5 0 0 0-5-5zm-4 6.3a1.86 1.86 0 1 1 1.86-1.86A1.86 1.86 0 0 1 8.29 11zm4.87 0A1.86 1.86 0 1 1 15 9.11 1.86 1.86 0 0 1 13.16 11zm4.01 7.08v.47a10.21 10.21 0 0 1-12.91 0v-.45a2.4 2.4 0 0 1 2.25-2.5h8.39a2.41 2.41 0 0 1 2.27 2.48z" fill="#DDD"/><circle cx="10.71" cy="10.71" r="10.25" fill="none" stroke="#DDD" stroke-miterlimit="10" stroke-width=".92"/></g></g></svg>